<?xml version="1.0" encoding="UTF-8" standalone="no"?>
<!-- Created with Inkscape (http://www.inkscape.org/) -->

<svg
   xmlns:osb="http://www.openswatchbook.org/uri/2009/osb"
   xmlns:dc="http://purl.org/dc/elements/1.1/"
   xmlns:cc="http://creativecommons.org/ns#"
   xmlns:rdf="http://www.w3.org/1999/02/22-rdf-syntax-ns#"
   xmlns:svg="http://www.w3.org/2000/svg"
   xmlns="http://www.w3.org/2000/svg"
   xmlns:xlink="http://www.w3.org/1999/xlink"
   xmlns:sodipodi="http://sodipodi.sourceforge.net/DTD/sodipodi-0.dtd"
   xmlns:inkscape="http://www.inkscape.org/namespaces/inkscape"
   width="1122.5197"
   height="400"
   viewBox="0 0 297.00001 105.83333"
   version="1.1"
   id="svg8"
   inkscape:version="0.92.5 (0.92.5+69)"
   sodipodi:docname="desert.svg"
   inkscape:export-filename="Desert ©SEVENart.png"
   inkscape:export-xdpi="120.93"
   inkscape:export-ydpi="120.93">
  <defs
     id="defs2">
    <linearGradient
       inkscape:collect="always"
       id="linearGradient864">
      <stop
         style="stop-color:#e19877;stop-opacity:1;"
         offset="0"
         id="stop860" />
      <stop
         style="stop-color:#e19877;stop-opacity:0;"
         offset="1"
         id="stop862" />
    </linearGradient>
    <linearGradient
       inkscape:collect="always"
       id="linearGradient852">
      <stop
         style="stop-color:#fffc8d;stop-opacity:1;"
         offset="0"
         id="stop848" />
      <stop
         style="stop-color:#fffc8d;stop-opacity:0;"
         offset="1"
         id="stop850" />
    </linearGradient>
    <radialGradient
       inkscape:collect="always"
       xlink:href="#linearGradient852"
       id="radialGradient854"
       cx="146.11038"
       cy="91.735077"
       fx="146.11038"
       fy="91.735077"
       r="17.896229"
       gradientUnits="userSpaceOnUse"
       gradientTransform="matrix(-2.05911,0.08907894,-0.06056636,-1.4000262,454.63456,238.22669)" />
    <radialGradient
       inkscape:collect="always"
       xlink:href="#linearGradient864"
       id="radialGradient866"
       cx="150.62131"
       cy="45.742531"
       fx="150.62131"
       fy="45.742531"
       r="148.5"
       gradientTransform="matrix(-1.6855835,-0.00578579,0.00792909,-0.58670077,404.14339,219.67441)"
       gradientUnits="userSpaceOnUse" />
    <linearGradient
       osb:paint="gradient"
       id="linearGradient1006">
      <stop
         id="stop1012"
         offset="0"
         style="stop-color:#ffffff;stop-opacity:1;" />
      <stop
         id="stop1014"
         offset="1"
         style="stop-color:#ffffff;stop-opacity:0;" />
    </linearGradient>
    <filter
       style="color-interpolation-filters:sRGB"
       inkscape:label="Drop Shadow"
       id="filter1038">
      <feFlood
         flood-opacity="1"
         flood-color="rgb(0,0,0)"
         result="flood"
         id="feFlood1028" />
      <feComposite
         in="flood"
         in2="SourceGraphic"
         operator="in"
         result="composite1"
         id="feComposite1030" />
      <feGaussianBlur
         in="composite1"
         stdDeviation="10"
         result="blur"
         id="feGaussianBlur1032" />
      <feOffset
         dx="0"
         dy="0"
         result="offset"
         id="feOffset1034" />
      <feComposite
         in="SourceGraphic"
         in2="offset"
         operator="over"
         result="composite2"
         id="feComposite1036" />
    </filter>
    <filter
       style="color-interpolation-filters:sRGB"
       inkscape:label="Drop Shadow"
       id="filter1038-5">
      <feFlood
         flood-opacity="1"
         flood-color="rgb(0,0,0)"
         result="flood"
         id="feFlood1028-6" />
      <feComposite
         in="flood"
         in2="SourceGraphic"
         operator="in"
         result="composite1"
         id="feComposite1030-2" />
      <feGaussianBlur
         in="composite1"
         stdDeviation="10"
         result="blur"
         id="feGaussianBlur1032-9" />
      <feOffset
         dx="0"
         dy="0"
         result="offset"
         id="feOffset1034-1" />
      <feComposite
         in="SourceGraphic"
         in2="offset"
         operator="over"
         result="composite2"
         id="feComposite1036-2" />
    </filter>
    <filter
       style="color-interpolation-filters:sRGB"
       inkscape:label="Drop Shadow"
       id="filter1038-5-7">
      <feFlood
         flood-opacity="1"
         flood-color="rgb(0,0,0)"
         result="flood"
         id="feFlood1028-6-0" />
      <feComposite
         in="flood"
         in2="SourceGraphic"
         operator="in"
         result="composite1"
         id="feComposite1030-2-9" />
      <feGaussianBlur
         in="composite1"
         stdDeviation="10"
         result="blur"
         id="feGaussianBlur1032-9-3" />
      <feOffset
         dx="0"
         dy="0"
         result="offset"
         id="feOffset1034-1-6" />
      <feComposite
         in="SourceGraphic"
         in2="offset"
         operator="over"
         result="composite2"
         id="feComposite1036-2-0" />
    </filter>
  </defs>
  <sodipodi:namedview
     id="base"
     pagecolor="#ffffff"
     bordercolor="#666666"
     borderopacity="1.0"
     inkscape:pageopacity="0.0"
     inkscape:pageshadow="2"
     inkscape:zoom="0.49890311"
     inkscape:cx="725.80112"
     inkscape:cy="109.80041"
     inkscape:document-units="px"
     inkscape:current-layer="layer3"
     showgrid="false"
     units="px"
     inkscape:window-width="1366"
     inkscape:window-height="710"
     inkscape:window-x="0"
     inkscape:window-y="32"
     inkscape:window-maximized="1" />
  <metadata
     id="metadata5">
    <rdf:RDF>
      <cc:Work
         rdf:about="">
        <dc:format>image/svg+xml</dc:format>
        <dc:type
           rdf:resource="http://purl.org/dc/dcmitype/StillImage" />
        <dc:title></dc:title>
      </cc:Work>
    </rdf:RDF>
  </metadata>
  <g
     inkscape:label="bg"
     inkscape:groupmode="layer"
     id="layer1"
     transform="translate(0,-191.16668)"
     style="display:inline"
     sodipodi:insensitive="true">
    <path
       style="display:inline;fill:#716c65;fill-opacity:1;stroke:none;stroke-width:0.97198957;stroke-miterlimit:4;stroke-dasharray:none;stroke-opacity:1"
       d="M -2.3422376e-6,191.16667 H 296.99999 V 297 H -2.3422376e-6 Z"
       id="rect1785"
       inkscape:connector-curvature="0" />
    <path
       inkscape:connector-curvature="0"
       id="path858"
       d="M -2.3422376e-6,191.16667 H 296.99999 V 297 H -2.3422376e-6 Z"
       style="display:inline;fill:url(#radialGradient866);fill-opacity:1;stroke:none;stroke-width:0.97198957;stroke-miterlimit:4;stroke-dasharray:none;stroke-opacity:1" />
  </g>
  <g
     inkscape:groupmode="layer"
     id="layer3"
     inkscape:label="ws"
     transform="translate(0,-104.16667)"
     style="display:inline">
    <path
       style="fill:#333333;fill-opacity:1;stroke:none;stroke-width:0.26458332px;stroke-linecap:butt;stroke-linejoin:miter;stroke-opacity:1"
       d="m 231.45492,161.2501 -74.18462,6.40168 -13.5661,-5.27668 -18.32395,5.03794 -57.414577,9.07953 L 25.96875,171.4345 0.07937499,176.37425 V 210.0001 H 297.07933 v -35.56424 l -15.15462,-7.48274 -24.19956,2.21536 z"
       id="path880"
       inkscape:connector-curvature="0"
       sodipodi:nodetypes="ccccccccccccc" />
    <path
       style="fill:#1a1a1a;fill-opacity:1;stroke:none;stroke-width:0.99999994px;stroke-linecap:butt;stroke-linejoin:miter;stroke-opacity:1"
       d="m 938.34623,654.9675 -118.88529,8.4407 -51.27344,-19.94336 -69.25586,19.04102 -38.10456,-6.28458 -75.84647,22.33012 -71.90904,-30.48036 -106.65387,45.7092 -47.73835,-27.94659 -38.3649,20.15073 -55.96927,-7.65112 -51.74752,-24.94849 -80.78711,39.68554 L 71.365172,668.45114 0,691.30469 V 793.70117 H 1122.5195 V 659.28516 l -60.1113,17.07226 z"
       id="path875"
       inkscape:connector-curvature="0"
       sodipodi:nodetypes="cccccccccccccccccccc"
       transform="scale(0.26458333)" />
    <circle
       style="opacity:1;fill:#f29172;fill-opacity:1;stroke:none;stroke-width:0.15731969;stroke-miterlimit:4;stroke-dasharray:none;stroke-opacity:1"
       id="path71"
       cx="148.5"
       cy="135.91666"
       r="13.229167" />
    <circle
       r="13.229167"
       cy="135.91666"
       cx="148.5"
       id="circle41"
       style="opacity:1;fill:url(#radialGradient854);fill-opacity:1;stroke:none;stroke-width:0.15731969;stroke-miterlimit:4;stroke-dasharray:none;stroke-opacity:1" />
    <path
       style="opacity:1;fill:#000000;fill-opacity:1;stroke:none;stroke-width:0.11997725;stroke-miterlimit:4;stroke-dasharray:none;stroke-opacity:1"
       d="m 171.25432,141.16863 -19.44335,3.48778 c 0.0104,-0.11285 -0.0344,-0.224 -0.14458,-0.30791 2.98638,-0.78858 6.26003,-2.06722 8.71663,-2.95444 l -5.42873,0.65707 c -1.0435,0.75605 -2.27116,1.47531 -3.52012,2.19028 -0.50141,0.10025 -0.94638,0.2287 -1.35865,0.37353 a 0.57569246,1.235924 82.683431 0 0 -0.8164,-0.23785 0.57569246,1.235924 82.683431 0 0 -0.36533,0.0202 0.57569246,1.235924 82.683431 0 0 -1.159,0.68424 l -0.24768,0.041 -0.25589,-1.42356 -0.26597,-0.0155 0.11717,1.5058 -0.51366,0.0848 c -6.90622,0.56739 -13.92042,0.74583 -20.82308,1.26726 7.06262,-0.17796 14.17396,-0.28646 20.83878,-1.03269 l 0.52163,-0.0157 0.14598,1.87488 c -0.4099,0.15304 -0.6975,0.52313 -0.74892,0.95326 l -0.36391,0.034 0.0553,0.49771 0.35149,-0.0483 c 0.11651,0.38304 0.41826,0.6706 0.78853,0.77892 -0.99374,0.84338 -1.53568,2.16722 -1.32022,3.55479 0.036,0.23208 0.0928,0.45552 0.16614,0.66995 l -3.15456,0.47827 -0.80282,-2.22544 -0.16051,-0.011 1.00106,5.12176 0.39836,-0.0883 0.022,-1.52666 -0.31658,-0.87781 3.1972,-0.42249 c 0.7272,1.48604 2.35415,2.38829 4.079,2.12045 l 1.17493,-0.18254 c 1.5215,-0.23626 2.69401,-1.31714 3.11566,-2.69199 l 0.32712,1.9897 0.39836,-0.0883 -0.0717,-1.5112 -0.48577,-1.46129 c 0.003,-0.21931 -0.0104,-0.4418 -0.0452,-0.66619 -0.23029,-1.48308 -1.26313,-2.63368 -2.58842,-3.08145 0.21161,-0.24946 0.31799,-0.58558 0.26362,-0.93568 -0.087,-0.55998 -0.55359,-0.96317 -1.0976,-0.98864 -0.0777,-0.004 -0.15691,4.7e-4 -0.23691,0.0129 l -0.35407,0.0551 c -0.0429,0.007 -0.0846,0.016 -0.12561,0.0269 -0.17079,-0.40008 -0.26484,-1.03062 -0.0935,-1.27336 l -0.0359,-0.28494 c -0.0611,-0.003 -0.12372,-0.005 -0.18771,-0.006 -0.19716,-0.002 -0.40772,0.009 -0.6212,0.0272 a 0.57569246,1.235924 82.683431 0 0 0.15585,-0.0944 l 0.9638,-0.11623 c 0.49012,0.10098 0.83046,-0.13205 0.9003,-0.38618 6.5923,-0.56134 13.32515,-2.03414 19.45459,-3.55198 z m -20.57399,3.45333 c 0.22882,-0.011 0.24808,0.12647 0.23293,0.33111 l -0.80329,0.10381 a 0.57569246,1.235924 82.683431 0 0 0.0776,-0.24253 0.57569246,1.235924 82.683431 0 0 -0.0136,-0.0579 c 0.22707,-0.0831 0.39608,-0.12921 0.50639,-0.13451 z m -2.93054,0.55888 a 0.57569246,1.235924 82.683431 0 0 0.10381,0.14833 l -0.32502,0.0244 -0.0246,-0.13685 z m -0.66058,0.0963 0.009,0.1085 -0.51904,0.0389 -0.005,-0.0722 z m 0.99989,0.1863 a 0.57569246,1.235924 82.683431 0 0 0.34072,0.0799 c -0.32113,0.082 -0.60776,0.17775 -0.81664,0.28049 l -0.0619,-0.34423 z m -0.42718,0.63175 c 0.2339,0.10453 0.53357,0.73406 0.4307,1.14564 -0.0733,-0.005 -0.14792,-10e-4 -0.22332,0.008 z"
       id="rect878"
       inkscape:connector-curvature="0" />
    <path
       style="fill:#000000;fill-opacity:1;stroke:none;stroke-width:0.99999994px;stroke-linecap:butt;stroke-linejoin:miter;stroke-opacity:1"
       d="m 487.55859,674.64648 -53.85742,29.76368 -0.10937,-0.0742 -27.01172,14.86133 L 293.13672,698.8418 171.41797,734.33789 132.39453,714.625 82.164062,731.2168 0,718.89648 v 74.80469 h 1122.5195 v -57.68359 l -36.8496,-20.26953 -96.37888,21.25976 -80.78711,-39.68554 -35.96289,19.9375 -71.75391,12.66211 -65.43945,-44.99805 -46.5293,19.48633 -66.14063,-25.83594 -30.96484,9.89844 -30.45312,-8.82227 -30.45313,8.82227 z"
       transform="scale(0.26458333)"
       id="path868"
       inkscape:connector-curvature="0" />
    <path
       style="font-style:normal;font-variant:normal;font-weight:bold;font-stretch:normal;font-size:23.07619095px;line-height:1.25;font-family:Venetian;-inkscape-font-specification:'Venetian Bold';letter-spacing:0px;word-spacing:0px;display:inline;fill:#ffffff;fill-opacity:1;stroke:none;stroke-width:0.57690483"
       d="m 146.60303,189.576 -0.0837,0.0141 0.002,0.42336 0.0841,-0.001 -9.3e-4,-0.22569 c 0.005,-5.7e-4 0.0111,-0.003 0.0174,-0.003 0.007,-4e-4 0.0134,-0.002 0.0209,-0.002 0.0187,6e-4 0.0317,0.006 0.0385,0.0168 0.007,0.0112 0.0111,0.0306 0.0112,0.0575 l 5.6e-4,0.1572 0.0836,-0.001 -2.3e-4,-0.16702 c 7.4e-4,-0.0202 -0.003,-0.0392 -0.007,-0.0556 -0.004,-0.0166 -0.0108,-0.0308 -0.0207,-0.0428 -0.009,-0.0119 -0.022,-0.0209 -0.0381,-0.0271 -0.0157,-0.007 -0.0362,-0.0103 -0.0603,-0.0103 -0.008,1e-5 -0.0161,7.9e-4 -0.0252,0.003 -0.009,0.002 -0.0165,0.003 -0.0222,0.005 z m 0.33007,0.0521 -0.0841,0.0135 9.8e-4,0.24904 c -6.1e-4,0.019 0.003,0.0367 0.006,0.0524 0.004,0.0158 0.009,0.0293 0.0183,0.0405 0.009,0.0108 0.0211,0.0196 0.0362,0.0259 0.0151,0.006 0.0339,0.009 0.0568,0.009 0.018,5.4e-4 0.0338,-0.001 0.0461,-0.005 0.0124,-0.003 0.0238,-0.007 0.0341,-0.0106 l -0.012,-0.0653 c -0.008,0.003 -0.0168,0.006 -0.0265,0.007 -0.009,0.002 -0.0184,0.001 -0.0277,0.002 -0.0188,-6e-4 -0.0314,-0.005 -0.0376,-0.0157 -0.006,-0.0106 -0.009,-0.0247 -0.009,-0.0423 l -4.2e-4,-0.10428 0.10064,-2.1e-4 2.9e-4,-0.07 -0.10115,1.6e-4 z m -0.86957,-0.0448 c -0.0135,-1.6e-4 -0.0254,0.005 -0.0354,0.0136 -0.01,0.009 -0.0146,0.0207 -0.0145,0.0361 -3.2e-4,0.0154 0.005,0.027 0.0145,0.036 0.0103,0.009 0.0224,0.0132 0.0357,0.0134 0.0136,1.6e-4 0.0251,-0.005 0.0348,-0.0131 0.0108,-0.009 0.015,-0.0211 0.0151,-0.0366 3.2e-4,-0.0154 -0.005,-0.027 -0.0151,-0.0355 -0.01,-0.009 -0.0215,-0.0134 -0.0352,-0.0134 z m 0.28832,0.12788 c -0.0105,-9.6e-4 -0.0207,-0.002 -0.031,-0.002 l 9.5e-4,0.001 c -0.0236,-1e-5 -0.0444,0.004 -0.0632,0.0107 -0.0187,0.006 -0.0352,0.0168 -0.0482,0.0296 -0.0128,0.0128 -0.0222,0.0287 -0.0289,0.0468 -0.008,0.0176 -0.009,0.0371 -0.0102,0.0588 2.9e-4,0.0436 0.0115,0.0775 0.0333,0.10191 0.0218,0.024 0.053,0.0357 0.0939,0.0355 0.0112,-5e-5 0.0214,-8.6e-4 0.0309,-0.003 0.0102,-0.002 0.0193,-0.004 0.0283,-0.01 l 1e-4,0.0109 c -3.9e-4,0.0165 -0.005,0.0302 -0.0149,0.0407 -0.01,0.0106 -0.0265,0.0153 -0.0506,0.0154 -0.0183,-5.7e-4 -0.0354,-0.002 -0.0499,-0.004 -0.0143,-0.003 -0.0277,-0.007 -0.041,-0.0118 l -0.0154,0.0703 c 0.0154,0.005 0.0322,0.009 0.0503,0.0126 0.0179,0.005 0.0367,0.004 0.0546,0.005 0.0515,-6.1e-4 0.0897,-0.0117 0.11402,-0.0354 0.0247,-0.0234 0.0369,-0.0594 0.0367,-0.10785 l -0.001,-0.24904 c -0.008,-0.002 -0.0159,-0.005 -0.0259,-0.006 -0.009,-0.002 -0.0195,-0.005 -0.0301,-0.006 -0.0105,-0.002 -0.022,-0.002 -0.0329,-0.004 z m 6.51232,0.58054 -0.44774,0.002 0.005,1.25609 -0.6707,-1.25391 -0.5276,0.002 0.007,1.83146 0.44774,-0.002 -0.005,-1.25609 0.67073,1.2534 0.5276,-0.002 z m -6.75764,-0.57456 -0.0841,0.001 10e-4,0.29625 0.0841,-0.001 z m -0.20031,-0.005 c -0.0252,-1.5e-4 -0.0478,0.002 -0.0686,0.007 -0.0203,0.003 -0.0382,0.009 -0.0531,0.0146 l 0.001,0.28071 0.0841,-5.8e-4 -0.001,-0.22677 c 0.004,-6.6e-4 0.009,-0.002 0.0158,-0.003 0.007,-4e-4 0.0141,-8.7e-4 0.0192,-4.3e-4 0.0117,0 0.0228,0.001 0.0329,0.004 0.0102,0.002 0.0194,0.005 0.0269,0.006 l 0.0137,-0.0694 c -0.005,-0.002 -0.01,-0.003 -0.0162,-0.005 -0.006,-0.002 -0.013,-0.002 -0.0193,-0.005 -0.006,-9.7e-4 -0.0126,-0.002 -0.019,-0.002 -0.006,-4.8e-4 -0.0115,-8.7e-4 -0.016,-8.5e-4 z m -1.27557,-0.0946 2.9e-4,0.003 c -0.0285,5.6e-4 -0.0552,0.004 -0.0795,0.0134 -0.0244,0.009 -0.045,0.023 -0.0626,0.0408 -0.0177,0.0174 -0.0318,0.0387 -0.0418,0.0644 -0.0102,0.0251 -0.0149,0.054 -0.0147,0.0864 4.8e-4,0.065 0.0168,0.11484 0.0499,0.15002 0.0335,0.0352 0.0823,0.0526 0.14593,0.0524 0.0298,-4.7e-4 0.0557,-0.003 0.078,-0.009 0.0225,-0.006 0.0398,-0.0134 0.0521,-0.021 l -0.0241,-0.07 c -0.005,0.002 -0.0108,0.005 -0.0167,0.007 -0.006,0.001 -0.0128,0.005 -0.0207,0.006 -0.008,0.002 -0.0167,0.004 -0.0269,0.005 -0.0102,0.002 -0.0216,0.002 -0.0344,0.002 -0.0202,-7.3e-4 -0.0377,-0.003 -0.0521,-0.009 -0.0143,-0.007 -0.0261,-0.0155 -0.035,-0.0269 -0.009,-0.0111 -0.0147,-0.0246 -0.0189,-0.04 -0.004,-0.0158 -0.006,-0.0328 -0.007,-0.0509 -8e-5,-0.0225 0.003,-0.0415 0.009,-0.0573 0.006,-0.0158 0.0137,-0.0285 0.0235,-0.0384 0.01,-0.0102 0.0218,-0.0179 0.0346,-0.0224 0.0131,-0.005 0.0263,-0.007 0.04,-0.007 0.0203,7.3e-4 0.038,0.002 0.0539,0.007 0.0161,0.005 0.0301,0.01 0.0421,0.0166 l 0.0253,-0.0715 c -0.003,-0.002 -0.008,-0.005 -0.0148,-0.009 -0.007,-0.004 -0.0151,-0.007 -0.0251,-0.01 -0.0102,-0.003 -0.022,-0.006 -0.0357,-0.007 -0.0133,-0.002 -0.0285,-0.003 -0.0448,-0.004 z m 1.10857,0.10056 -0.0867,3.6e-4 c -0.004,0.0147 -0.008,0.0308 -0.0135,0.0481 -0.005,0.0169 -0.009,0.0341 -0.0143,0.0517 -0.005,0.0173 -0.01,0.0346 -0.0153,0.0511 -0.005,0.0165 -0.01,0.0314 -0.0152,0.0449 -0.005,-0.0135 -0.0108,-0.0285 -0.0169,-0.045 -0.006,-0.0164 -0.0112,-0.0335 -0.0169,-0.0507 -0.006,-0.0176 -0.0116,-0.0348 -0.0168,-0.0517 -0.005,-0.0173 -0.009,-0.0331 -0.013,-0.0478 l -0.0878,0.002 c 0.0171,0.0581 0.0351,0.11026 0.0545,0.15715 0.0193,0.0464 0.0389,0.0887 0.0582,0.12634 -0.006,0.0143 -0.0127,0.025 -0.021,0.033 -0.008,0.008 -0.0198,0.0125 -0.0348,0.0126 -0.007,3e-5 -0.0143,-3.2e-4 -0.0211,-0.002 -0.007,-9.6e-4 -0.0142,-0.003 -0.0228,-0.006 l -0.0151,0.0672 c 0.007,0.003 0.0164,0.007 0.0273,0.009 0.0113,0.002 0.0233,0.004 0.0366,0.003 0.0157,3.4e-4 0.0294,-0.003 0.041,-0.007 0.012,-0.004 0.0228,-0.009 0.0321,-0.017 0.009,-0.007 0.0181,-0.0173 0.0258,-0.0294 0.008,-0.0117 0.0154,-0.026 0.0234,-0.0431 0.0216,-0.047 0.0419,-0.0957 0.0602,-0.14578 0.0182,-0.05 0.0355,-0.10331 0.0521,-0.16047 z m 0.58429,0.0573 -4e-5,5.2e-4 -6.1e-4,9.8e-4 c 0.008,-4e-5 0.0145,6.1e-4 0.0201,0.001 0.006,3.6e-4 0.0103,7.4e-4 0.0145,7.2e-4 l 9.8e-4,0.1339 c -0.005,0.003 -0.012,0.006 -0.0193,0.008 -0.007,0.001 -0.0155,0.003 -0.0242,0.004 -0.0379,7.7e-4 -0.057,-0.0232 -0.0573,-0.0702 -8e-5,-0.0225 0.005,-0.0414 0.0162,-0.0562 0.0113,-0.0146 0.0275,-0.0221 0.0496,-0.0222 z m -1.05793,-0.062 c -0.0101,4e-5 -0.0209,3.5e-4 -0.0323,10e-4 -0.0108,8e-5 -0.0216,0.002 -0.0325,0.004 -0.0104,0.002 -0.0207,0.003 -0.0306,0.006 -0.0102,0.002 -0.0185,0.003 -0.0259,0.006 l 0.002,0.39018 0.0836,-6.3e-4 -8.2e-4,-0.11158 c 0.009,0.004 0.0192,0.008 0.0292,0.01 0.0102,0.002 0.0217,0.003 0.0334,0.003 0.0209,7.9e-4 0.0393,-0.005 0.0554,-0.0113 0.0161,-0.007 0.0297,-0.0178 0.0405,-0.0313 0.0112,-0.0136 0.0194,-0.0295 0.0249,-0.0482 0.007,-0.0188 0.007,-0.0403 0.008,-0.0631 2e-5,-0.0237 -0.004,-0.0446 -0.0106,-0.0637 -0.006,-0.0191 -0.0168,-0.0356 -0.0301,-0.0487 -0.0131,-0.0134 -0.0294,-0.024 -0.0487,-0.0311 -0.0191,-0.008 -0.0406,-0.0102 -0.0649,-0.0113 z m -1.08696,-0.0925 -5e-5,5.2e-4 c -0.0259,-2.1e-4 -0.0508,0.006 -0.0744,0.0144 -0.0237,0.009 -0.0441,0.0226 -0.0621,0.0403 -0.0179,0.0173 -0.0325,0.0386 -0.0433,0.0642 -0.0112,0.0251 -0.0155,0.0539 -0.0156,0.0858 2.9e-4,0.0318 0.005,0.0604 0.016,0.0859 0.011,0.0251 0.0257,0.0464 0.0438,0.0639 0.0181,0.0172 0.0387,0.0308 0.0624,0.0401 0.0237,0.009 0.0483,0.0134 0.074,0.0136 0.0259,2.1e-4 0.0506,-0.006 0.0743,-0.0139 0.0236,-0.009 0.0446,-0.023 0.0626,-0.0403 0.018,-0.0177 0.0324,-0.0391 0.0428,-0.0643 0.0112,-0.0255 0.0157,-0.0544 0.0162,-0.0863 -2.9e-4,-0.0319 -0.005,-0.0603 -0.0165,-0.0854 -0.0106,-0.0255 -0.0251,-0.0472 -0.0432,-0.0644 -0.0181,-0.0177 -0.0388,-0.0306 -0.0625,-0.0396 -0.0236,-0.009 -0.0482,-0.0146 -0.0739,-0.0146 z m 0.75501,0.0926 c -0.0212,2e-4 -0.0406,0.005 -0.0586,0.0116 -0.0176,0.007 -0.0327,0.0183 -0.0458,0.0319 -0.0127,0.0136 -0.0227,0.0301 -0.0302,0.0493 -0.008,0.019 -0.0106,0.0401 -0.0106,0.0634 2e-5,0.0233 0.004,0.0447 0.0111,0.0642 0.006,0.0191 0.0172,0.0358 0.03,0.0498 0.0128,0.0134 0.0278,0.024 0.0455,0.0314 0.018,0.009 0.0381,0.0115 0.0597,0.0113 0.0221,-1.1e-4 0.042,-0.004 0.0596,-0.0115 0.0181,-0.006 0.0335,-0.0183 0.0463,-0.0318 0.0127,-0.014 0.0224,-0.0301 0.0291,-0.0494 0.008,-0.0195 0.01,-0.0411 0.0107,-0.0644 -2e-5,-0.0233 -0.004,-0.0446 -0.0106,-0.0637 -0.006,-0.0189 -0.0172,-0.0352 -0.0301,-0.0487 -0.0127,-0.0134 -0.0284,-0.024 -0.0466,-0.0315 -0.0176,-0.009 -0.0375,-0.0114 -0.0587,-0.0113 z m -1.49437,-0.12579 -0.27131,6.5e-4 0.01,2.64543 0.27187,-0.001 z m 0.73937,0.0876 -5e-5,5.2e-4 5.3e-4,4e-5 c 0.02,7.6e-4 0.039,0.004 0.0556,0.011 0.0173,0.008 0.0321,0.0171 0.0441,0.0302 0.0124,0.0132 0.0218,0.0288 0.0286,0.047 0.006,0.0184 0.0102,0.0391 0.0103,0.0616 9e-5,0.0225 -0.004,0.043 -0.0104,0.0613 -0.008,0.0184 -0.0165,0.0342 -0.0289,0.0473 -0.012,0.0131 -0.0264,0.0232 -0.0436,0.0305 -0.0168,0.007 -0.035,0.0108 -0.0554,0.0108 -0.0203,-7.4e-4 -0.0394,-0.004 -0.0566,-0.0111 -0.0169,-0.007 -0.0316,-0.017 -0.0441,-0.0302 -0.012,-0.0131 -0.0212,-0.0292 -0.0281,-0.0475 -0.006,-0.0183 -0.0102,-0.0386 -0.0103,-0.061 -8e-5,-0.0225 0.003,-0.0429 0.0104,-0.0614 0.008,-0.0183 0.0165,-0.0341 0.0284,-0.0473 0.0123,-0.0131 0.0268,-0.0238 0.0436,-0.031 0.0172,-0.007 0.036,-0.0106 0.0559,-0.0108 z m 1.08644,0.11059 c 0.0229,-4e-5 0.0404,0.007 0.0519,0.0236 0.0118,0.0154 0.0173,0.0359 0.0175,0.0617 4.2e-4,0.0537 -0.0195,0.0808 -0.0593,0.081 -0.009,3e-5 -0.0174,-0.001 -0.0261,-0.004 -0.008,-0.002 -0.0148,-0.005 -0.02,-0.008 l -5.3e-4,-0.15149 c 0.004,-5.1e-4 0.009,-10e-4 0.0156,-7.4e-4 0.006,-4.8e-4 0.0138,-8.9e-4 0.0213,-2.5e-4 z m -1.07766,-0.0678 -0.002,3.9e-4 c -0.0305,3.9e-4 -0.0551,0.009 -0.074,0.0279 -0.0183,0.0185 -0.0271,0.0447 -0.0269,0.0786 9e-5,0.0341 0.009,0.0602 0.0265,0.0785 0.0178,0.0184 0.0435,0.028 0.077,0.0279 0.0169,4.5e-4 0.031,-0.002 0.0426,-0.007 0.0117,-0.005 0.0198,-0.007 0.0248,-0.0109 l -0.0159,-0.0512 c -0.006,0.001 -0.0127,0.005 -0.0203,0.007 -0.007,10e-4 -0.017,0.003 -0.0284,0.004 -0.009,2e-5 -0.0155,-0.001 -0.0207,-0.006 -0.005,-0.003 -0.009,-0.006 -0.0126,-0.0109 -0.003,-0.005 -0.005,-0.0105 -0.006,-0.0161 -4.8e-4,-0.006 -4.5e-4,-0.013 1.3e-4,-0.0197 2.9e-4,-0.0151 0.002,-0.0264 0.0107,-0.0343 0.007,-0.007 0.0176,-0.0119 0.0301,-0.012 0.0105,-3e-5 0.0187,5.2e-4 0.0251,0.004 0.007,0.003 0.0129,0.005 0.018,0.008 l 0.0178,-0.0498 c -0.004,-0.002 -0.0116,-0.006 -0.0229,-0.0108 -0.0109,-0.005 -0.0254,-0.007 -0.0435,-0.007 z m 0.7467,0.0686 c 0.019,6.4e-4 0.0336,0.007 0.0437,0.0224 0.0106,0.0146 0.0159,0.0346 0.0161,0.0605 -2e-4,0.0259 -0.005,0.0469 -0.0157,0.0624 -0.0103,0.0151 -0.0245,0.0225 -0.0434,0.0227 -0.019,-6.2e-4 -0.0343,-0.008 -0.0448,-0.0225 -0.0106,-0.0154 -0.0158,-0.0362 -0.016,-0.062 2.1e-4,-0.0259 0.005,-0.0462 0.0156,-0.0609 0.0103,-0.0152 0.0254,-0.0225 0.0445,-0.0226 z m 5.84604,0.51161 -1.27424,0.005 0.007,1.83146 1.3012,-0.005 -0.001,-0.35692 -0.82956,0.003 -0.001,-0.41919 0.75436,-0.003 -0.001,-0.35693 -0.75437,0.003 -0.001,-0.34088 0.80214,-0.003 z m 6.09537,0.53761 9.8e-4,6.1e-4 c -0.14251,0.003 -0.19781,0.11925 -0.27205,0.22152 -0.26877,0.0111 -0.28893,0.0514 -0.42375,0.27286 l -0.0272,0.0454 c 0.13307,-0.0206 0.0858,-0.0105 0.23902,-0.0112 -0.0741,0.12735 -0.17787,0.23553 -0.29355,0.33327 l -0.009,-0.048 c -0.0826,0.0631 -0.24027,0.22704 -0.34828,0.22746 -0.0377,7.8e-4 -0.0782,-0.0302 -0.0785,-0.0705 -4.5e-4,-0.10048 0.12257,-0.22364 0.19517,-0.28671 0.0576,-0.048 0.10514,-0.086 0.10477,-0.16374 -0.005,-0.0452 -0.0228,-0.0858 -0.0607,-0.13331 -0.0252,-0.0301 -0.16319,9.1e-4 -0.39919,0.0343 0.01,-0.0226 0.0169,-0.0449 0.0169,-0.0701 -7e-5,-0.0226 -0.02,-0.0429 -0.0451,-0.0428 -0.0602,-1.4e-4 -0.31596,0.18219 -0.31529,0.36305 5e-4,0.0528 0.0152,0.0725 0.0681,0.0774 -0.0475,0.068 -0.0999,0.13101 -0.16511,0.184 l 5.6e-4,0.0177 c -0.0773,0.0555 -0.15694,0.10621 -0.22279,0.10646 -0.0402,5.7e-4 -0.0782,-0.0176 -0.0784,-0.0601 -4e-5,-0.11803 0.21755,-0.29468 0.21725,-0.37507 -2.9e-4,-0.0553 -0.0255,-0.0824 -0.0732,-0.10221 0.0226,-0.009 0.0876,-0.0334 0.0874,-0.0636 -4.5e-4,-0.0301 -0.048,-0.12275 -0.1635,-0.1198 -0.29137,0.009 -0.94357,0.33238 -0.93235,0.64634 0.006,0.13062 0.15173,0.29623 0.22208,0.29596 0.0577,-7e-5 0.21847,-0.13179 0.26606,-0.16965 l 0.23018,-0.18673 0.004,0.006 c -0.0323,0.0679 -0.0923,0.20115 -0.092,0.28153 -2e-4,0.0728 0.038,0.13306 0.1209,0.13275 0.12311,-7.1e-4 0.4588,-0.27045 0.56636,-0.39395 l -0.007,-0.0307 c 0.0579,-0.0526 0.11333,-0.10759 0.16267,-0.18577 l 0.26075,-0.0591 0.005,0.005 c -0.10008,0.12096 -0.22998,0.25456 -0.22934,0.42538 8.5e-4,0.0956 0.0658,0.19347 0.17123,0.19307 0.11461,-3.3e-4 0.32043,-0.17894 0.44734,-0.30611 l 0.0113,0.0378 0.12764,-0.1037 0.004,0.006 c -0.0323,0.0729 -0.0649,0.16884 -0.0646,0.25173 4.5e-4,0.10049 0.061,0.16802 0.15889,0.16763 0.21353,-8e-4 0.48409,-0.2708 0.63179,-0.40702 l -0.0128,-0.11054 c -0.26055,0.18689 -0.3508,0.26258 -0.43119,0.26289 -0.0577,8e-5 -0.0753,-0.0323 -0.0755,-0.0874 -5.6e-4,-0.15072 0.14179,-0.35729 0.22677,-0.46813 0.27639,0.0166 0.29624,-0.0767 0.41341,-0.31576 l -0.1561,-0.0123 c 0.0249,-0.0352 0.0977,-0.11864 0.0975,-0.16385 -5.8e-4,-0.0402 -0.0483,-0.0475 -0.081,-0.0474 z m -15.57327,-1.24016 -1.3179,1.32754 0.47566,0.47221 0.64905,-0.003 -0.32297,0.32557 0.52584,0.52215 1.3179,-1.32753 -0.47566,-0.47222 -0.64905,0.003 0.32348,-0.32552 z m 7.96187,0.70872 -0.47421,0.002 -0.47935,1.35312 -0.49084,-1.34952 -0.47469,0.001 0.68479,1.82875 0.56343,-0.002 z m -2.14375,0.008 -1.27424,0.005 0.007,1.8309 1.30119,-0.005 -0.001,-0.35692 -0.82908,0.003 -0.002,-0.41976 0.75437,-0.003 -10e-4,-0.35693 -0.75437,0.003 -10e-4,-0.34087 0.80209,-0.003 z m -5.81712,-0.41318 0.22134,0.21966 -0.82809,0.83419 0.85239,-0.003 -0.22585,0.22704 -0.77458,0.003 -0.26005,-0.25824 z m 3.67678,0.41158 c -0.10635,-0.0151 -0.21034,-0.0218 -0.31091,-0.0214 l 6.1e-4,-9.8e-4 c -0.22079,7.8e-4 -0.39021,0.0509 -0.50759,0.14951 -0.11738,0.0985 -0.17573,0.23886 -0.17504,0.42121 5e-4,0.14554 0.0429,0.26093 0.12751,0.34647 0.0853,0.0855 0.2198,0.1479 0.40312,0.18646 l 0.18333,0.0395 c 0.11131,0.0241 0.18525,0.0517 0.22216,0.0828 0.0377,0.0309 0.0565,0.0747 0.0566,0.13191 5.8e-4,0.0638 -0.0269,0.11304 -0.0816,0.14758 -0.0546,0.0346 -0.13329,0.052 -0.23632,0.0524 -0.10141,3.6e-4 -0.20696,-0.0147 -0.31666,-0.0452 -0.10887,-0.0315 -0.22198,-0.0783 -0.33915,-0.14001 l 0.002,0.39898 c 0.1171,0.0429 0.23412,0.0752 0.35113,0.0969 0.11701,0.0218 0.23336,0.032 0.34943,0.032 0.24614,-0.001 0.42899,-0.0506 0.54801,-0.14916 0.11983,-0.0995 0.17896,-0.25009 0.1782,-0.45206 -6.2e-4,-0.15374 -0.0437,-0.2719 -0.12991,-0.35498 -0.0862,-0.083 -0.23111,-0.14489 -0.43488,-0.18502 l -0.20148,-0.0395 c -0.0958,-0.0192 -0.16207,-0.042 -0.19898,-0.0689 -0.0362,-0.0277 -0.0542,-0.066 -0.0545,-0.11513 -4.2e-4,-0.0654 0.0265,-0.1138 0.0804,-0.14509 0.054,-0.0313 0.1376,-0.0471 0.25043,-0.0476 0.0851,-7.5e-4 0.17525,0.0108 0.27102,0.033 0.0958,0.0225 0.19402,0.0563 0.29477,0.10095 l -0.002,-0.38757 c -0.11376,-0.0298 -0.22349,-0.0523 -0.32985,-0.0666 z m 9.77098,1.10832 5e-4,4e-5 0.004,0.006 c -0.49548,0.50429 -0.57306,0.49709 -0.62326,0.50733 -0.0376,0.008 -0.0482,-0.0385 -0.0506,-0.051 -7.1e-4,-0.1231 0.0719,-0.27627 0.66917,-0.46191 z m -12.68478,-0.76274 0.26006,0.25824 -1.01536,1.02252 -0.22134,-0.21965 0.82809,-0.8342 -0.85188,0.003 0.22534,-0.22709 z"
       id="path98"
       inkscape:connector-curvature="0" />
  </g>
</svg>
